<svg id="visual" viewBox="0 0 450 900" width="450" height="900" xmlns="http://www.w3.org/2000/svg" xmlns:xlink="http://www.w3.org/1999/xlink" version="1.1"><rect x="0" y="0" width="450" height="900" fill="#E1FFA1"></rect><defs><linearGradient id="grad1_0" x1="0%" y1="0%" x2="100%" y2="100%"><stop offset="30%" stop-color="#f4ffdd" stop-opacity="1"></stop><stop offset="70%" stop-color="#f4ffdd" stop-opacity="1"></stop></linearGradient></defs><defs><linearGradient id="grad1_1" x1="0%" y1="0%" x2="100%" y2="100%"><stop offset="30%" stop-color="#f4ffdd" stop-opacity="1"></stop><stop offset="70%" stop-color="#ebffbf" stop-opacity="1"></stop></linearGradient></defs><defs><linearGradient id="grad1_2" x1="0%" y1="0%" x2="100%" y2="100%"><stop offset="30%" stop-color="#e1ffa1" stop-opacity="1"></stop><stop offset="70%" stop-color="#ebffbf" stop-opacity="1"></stop></linearGradient></defs><defs><linearGradient id="grad2_0" x1="0%" y1="0%" x2="100%" y2="100%"><stop offset="30%" stop-color="#f4ffdd" stop-opacity="1"></stop><stop offset="70%" stop-color="#f4ffdd" stop-opacity="1"></stop></linearGradient></defs><defs><linearGradient id="grad2_1" x1="0%" y1="0%" x2="100%" y2="100%"><stop offset="30%" stop-color="#ebffbf" stop-opacity="1"></stop><stop offset="70%" stop-color="#f4ffdd" stop-opacity="1"></stop></linearGradient></defs><defs><linearGradient id="grad2_2" x1="0%" y1="0%" x2="100%" y2="100%"><stop offset="30%" stop-color="#ebffbf" stop-opacity="1"></stop><stop offset="70%" stop-color="#e1ffa1" stop-opacity="1"></stop></linearGradient></defs><g transform="translate(450, 0)"><path d="M0 450C-15.2 366.8 -30.4 283.6 -78.4 292.7C-126.5 301.8 -207.5 403.3 -225 389.7C-242.5 376.2 -196.6 247.6 -194.5 194.5C-192.3 141.3 -233.8 163.5 -284.9 164.5C-336.1 165.5 -396.9 145.1 -426 114.1C-455.1 83.2 -452.5 41.6 -450 0L0 0Z" fill="#e6ffb0"></path><path d="M0 300C-10.1 244.5 -20.2 189 -52.3 195.1C-84.3 201.2 -138.3 268.8 -150 259.8C-161.7 250.8 -131.1 165.1 -129.6 129.6C-128.2 94.2 -155.8 109 -189.9 109.7C-224 110.3 -264.6 96.7 -284 76.1C-303.4 55.4 -301.7 27.7 -300 0L0 0Z" fill="#efffce"></path><path d="M0 150C-5.1 122.3 -10.1 94.5 -26.1 97.6C-42.2 100.6 -69.2 134.4 -75 129.9C-80.8 125.4 -65.5 82.5 -64.8 64.8C-64.1 47.1 -77.9 54.5 -95 54.8C-112 55.2 -132.3 48.4 -142 38C-151.7 27.7 -150.8 13.9 -150 0L0 0Z" fill="#f4ffdd"></path></g><g transform="translate(0, 900)"><path d="M0 -450C21.9 -384.7 43.8 -319.4 85.2 -317.8C126.5 -316.2 187.4 -378.4 217.5 -376.7C247.6 -375 246.8 -309.5 278.6 -278.6C310.4 -247.7 374.8 -251.4 389.7 -225C404.6 -198.6 370.1 -142.2 371.9 -99.6C373.7 -57.1 411.8 -28.6 450 0L0 0Z" fill="#e6ffb0"></path><path d="M0 -300C14.6 -256.5 29.2 -212.9 56.8 -211.9C84.4 -210.8 125 -252.3 145 -251.1C165 -250 164.5 -206.3 185.7 -185.7C206.9 -165.1 249.9 -167.6 259.8 -150C269.8 -132.4 246.7 -94.8 247.9 -66.4C249.1 -38.1 274.6 -19 300 0L0 0Z" fill="#efffce"></path><path d="M0 -150C7.3 -128.2 14.6 -106.5 28.4 -105.9C42.2 -105.4 62.5 -126.1 72.5 -125.6C82.5 -125 82.3 -103.2 92.9 -92.9C103.5 -82.6 124.9 -83.8 129.9 -75C134.9 -66.2 123.4 -47.4 124 -33.2C124.6 -19 137.3 -9.5 150 0L0 0Z" fill="#f4ffdd"></path></g></svg>