<svg id="visual" viewBox="0 0 450 900" width="450" height="900" xmlns="http://www.w3.org/2000/svg" xmlns:xlink="http://www.w3.org/1999/xlink" version="1.1"><rect x="0" y="0" width="450" height="900" fill="#D1FF70"></rect><defs><linearGradient id="grad1_0" x1="0%" y1="0%" x2="100%" y2="100%"><stop offset="30%" stop-color="#e1ffa1" stop-opacity="1"></stop><stop offset="70%" stop-color="#e1ffa1" stop-opacity="1"></stop></linearGradient></defs><defs><linearGradient id="grad1_1" x1="0%" y1="0%" x2="100%" y2="100%"><stop offset="30%" stop-color="#e1ffa1" stop-opacity="1"></stop><stop offset="70%" stop-color="#dcff91" stop-opacity="1"></stop></linearGradient></defs><defs><linearGradient id="grad1_2" x1="0%" y1="0%" x2="100%" y2="100%"><stop offset="30%" stop-color="#d7ff81" stop-opacity="1"></stop><stop offset="70%" stop-color="#dcff91" stop-opacity="1"></stop></linearGradient></defs><defs><linearGradient id="grad1_3" x1="0%" y1="0%" x2="100%" y2="100%"><stop offset="30%" stop-color="#d7ff81" stop-opacity="1"></stop><stop offset="70%" stop-color="#d1ff70" stop-opacity="1"></stop></linearGradient></defs><defs><linearGradient id="grad2_0" x1="0%" y1="0%" x2="100%" y2="100%"><stop offset="30%" stop-color="#e1ffa1" stop-opacity="1"></stop><stop offset="70%" stop-color="#e1ffa1" stop-opacity="1"></stop></linearGradient></defs><defs><linearGradient id="grad2_1" x1="0%" y1="0%" x2="100%" y2="100%"><stop offset="30%" stop-color="#dcff91" stop-opacity="1"></stop><stop offset="70%" stop-color="#e1ffa1" stop-opacity="1"></stop></linearGradient></defs><defs><linearGradient id="grad2_2" x1="0%" y1="0%" x2="100%" y2="100%"><stop offset="30%" stop-color="#dcff91" stop-opacity="1"></stop><stop offset="70%" stop-color="#d7ff81" stop-opacity="1"></stop></linearGradient></defs><defs><linearGradient id="grad2_3" x1="0%" y1="0%" x2="100%" y2="100%"><stop offset="30%" stop-color="#d1ff70" stop-opacity="1"></stop><stop offset="70%" stop-color="#d7ff81" stop-opacity="1"></stop></linearGradient></defs><g transform="translate(450, 0)"><path d="M0 405C-32.4 400 -64.8 395 -104.8 391.2C-144.8 387.4 -192.3 384.6 -195.5 338.6C-198.7 292.6 -157.5 203.2 -171.8 171.8C-186.2 140.4 -256.1 167 -273.7 158C-291.2 149 -256.3 104.5 -269.5 72.2C-282.6 40 -343.8 20 -405 0L0 0Z" fill="#d4ff79"></path><path d="M0 303.8C-24.3 300 -48.6 296.3 -78.6 293.4C-108.6 290.5 -144.3 288.5 -146.6 254C-149 219.4 -118.1 152.4 -128.9 128.9C-139.6 105.3 -192.1 125.2 -205.2 118.5C-218.4 111.8 -192.3 78.4 -202.1 54.2C-212 30 -257.9 15 -303.7 0L0 0Z" fill="#d9ff89"></path><path d="M0 202.5C-16.2 200 -32.4 197.5 -52.4 195.6C-72.4 193.7 -96.2 192.3 -97.7 169.3C-99.3 146.3 -78.7 101.6 -85.9 85.9C-93.1 70.2 -128.1 83.5 -136.8 79C-145.6 74.5 -128.2 52.2 -134.7 36.1C-141.3 20 -171.9 10 -202.5 0L0 0Z" fill="#deff99"></path><path d="M0 101.3C-8.1 100 -16.2 98.8 -26.2 97.8C-36.2 96.8 -48.1 96.2 -48.9 84.7C-49.7 73.1 -39.4 50.8 -43 43C-46.5 35.1 -64 41.7 -68.4 39.5C-72.8 37.3 -64.1 26.1 -67.4 18.1C-70.7 10 -86 5 -101.2 0L0 0Z" fill="#e1ffa1"></path></g><g transform="translate(0, 900)"><path d="M0 -405C23.3 -351.9 46.6 -298.8 77.1 -287.8C107.7 -276.9 145.4 -308.2 182.5 -316.1C219.6 -324 255.9 -308.6 286.4 -286.4C316.8 -264.1 341.3 -235 348.1 -201C355 -167 344.1 -128.3 350.6 -94C357.2 -59.6 381.1 -29.8 405 0L0 0Z" fill="#d4ff79"></path><path d="M0 -303.7C17.5 -263.9 34.9 -224.1 57.8 -215.9C80.7 -207.7 109.1 -231.1 136.9 -237.1C164.7 -243 192 -231.5 214.8 -214.8C237.6 -198.1 256 -176.2 261.1 -150.8C266.2 -125.3 258.1 -96.2 263 -70.5C267.9 -44.7 285.8 -22.4 303.8 0L0 0Z" fill="#d9ff89"></path><path d="M0 -202.5C11.6 -175.9 23.3 -149.4 38.6 -143.9C53.8 -138.5 72.7 -154.1 91.2 -158C109.8 -162 128 -154.3 143.2 -143.2C158.4 -132.1 170.7 -117.5 174.1 -100.5C177.5 -83.5 172.1 -64.1 175.3 -47C178.6 -29.8 190.5 -14.9 202.5 0L0 0Z" fill="#deff99"></path><path d="M0 -101.2C5.8 -88 11.6 -74.7 19.3 -72C26.9 -69.2 36.4 -77 45.6 -79C54.9 -81 64 -77.2 71.6 -71.6C79.2 -66 85.3 -58.7 87 -50.3C88.7 -41.8 86 -32.1 87.7 -23.5C89.3 -14.9 95.3 -7.5 101.3 0L0 0Z" fill="#e1ffa1"></path></g></svg>