<svg id="visual" viewBox="0 0 450 900" width="450" height="900" xmlns="http://www.w3.org/2000/svg" xmlns:xlink="http://www.w3.org/1999/xlink" version="1.1"><rect x="0" y="0" width="450" height="900" fill="#f4ffdd"></rect><defs><linearGradient id="grad1_0" x1="0%" y1="0%" x2="100%" y2="100%"><stop offset="30%" stop-color="#f4ffdd" stop-opacity="1"></stop><stop offset="70%" stop-color="#f4ffdd" stop-opacity="1"></stop></linearGradient></defs><defs><linearGradient id="grad2_0" x1="0%" y1="0%" x2="100%" y2="100%"><stop offset="30%" stop-color="#f4ffdd" stop-opacity="1"></stop><stop offset="70%" stop-color="#f4ffdd" stop-opacity="1"></stop></linearGradient></defs><g transform="translate(450, 0)"><path d="M0 405C-34.7 371.1 -69.4 337.2 -104.4 321.5C-139.5 305.7 -174.8 308.1 -218.1 300.1C-261.3 292.1 -312.4 273.7 -327.7 238.1C-342.9 202.4 -322.2 149.5 -329.1 106.9C-336 64.4 -370.5 32.2 -405 0L0 0Z" fill="#626658"></path></g><g transform="translate(0, 900)"><path d="M0 -405C40.3 -393.2 80.5 -381.4 119.9 -369C159.3 -356.6 197.7 -343.5 234.5 -322.8C271.4 -302.1 306.6 -273.6 327.7 -238.1C348.7 -202.5 355.6 -159.8 366.2 -119C376.7 -78.1 390.8 -39.1 405 0L0 0Z" fill="#626658"></path></g></svg>