<svg id="visual" viewBox="0 0 450 900" width="450" height="900" xmlns="http://www.w3.org/2000/svg" xmlns:xlink="http://www.w3.org/1999/xlink" version="1.1"><rect x="0" y="0" width="450" height="900" fill="#f4ffdd"></rect><g transform="translate(239.82763219275654 438.1741388152317)"><path d="M60.3 -103C83.1 -91.3 110 -85.1 125.4 -68.9C140.9 -52.7 144.9 -26.3 151.9 4C158.8 34.3 168.6 68.7 158.1 93.5C147.6 118.3 116.8 133.6 87.1 143.5C57.3 153.3 28.7 157.7 -0.8 159.1C-30.3 160.5 -60.7 159.1 -77.6 141.8C-94.4 124.6 -97.9 91.5 -120.2 65.3C-142.5 39 -183.8 19.5 -191.1 -4.2C-198.5 -28 -172 -56 -145.8 -75.6C-119.7 -95.3 -93.8 -106.5 -69.6 -117.4C-45.3 -128.2 -22.7 -138.6 -2 -135.2C18.8 -131.8 37.5 -114.6 60.3 -103" fill="#ffffff"></path></g></svg>