<svg id="visual" viewBox="0 0 450 900" width="450" height="900" xmlns="http://www.w3.org/2000/svg" xmlns:xlink="http://www.w3.org/1999/xlink" version="1.1">

<path d="M0 359L12.5 360C25 361 50 363 75 374C100 385 125 405 150 389.7C175 374.3 200 323.7 225 324.3C250 325 275 377 300 408.7C325 440.3 350 451.7 375 423.2C400 394.7 425 326.3 437.5 292.2L450 258L450 901L437.5 901C425 901 400 901 375 901C350 901 325 901 300 901C275 901 250 901 225 901C200 901 175 901 150 901C125 901 100 901 75 901C50 901 25 901 12.5 901L0 901Z" fill="#f4ffdd"></path><path d="M0 384L12.5 411.7C25 439.3 50 494.7 75 497.5C100 500.3 125 450.7 150 442.7C175 434.7 200 468.3 225 472.8C250 477.3 275 452.7 300 436.7C325 420.7 350 413.3 375 423.5C400 433.7 425 461.3 437.5 475.2L450 489L450 901L437.5 901C425 901 400 901 375 901C350 901 325 901 300 901C275 901 250 901 225 901C200 901 175 901 150 901C125 901 100 901 75 901C50 901 25 901 12.5 901L0 901Z" fill="#efffce"></path><path d="M0 608L12.5 611.5C25 615 50 622 75 608.7C100 595.3 125 561.7 150 540.7C175 519.7 200 511.3 225 527.5C250 543.7 275 584.3 300 595.3C325 606.3 350 587.7 375 564.7C400 541.7 425 514.3 437.5 500.7L450 487L450 901L437.5 901C425 901 400 901 375 901C350 901 325 901 300 901C275 901 250 901 225 901C200 901 175 901 150 901C125 901 100 901 75 901C50 901 25 901 12.5 901L0 901Z" fill="#ebffbf"></path><path d="M0 723L12.5 717.2C25 711.3 50 699.7 75 687C100 674.3 125 660.7 150 664.3C175 668 200 689 225 680.8C250 672.7 275 635.3 300 636C325 636.7 350 675.3 375 680C400 684.7 425 655.3 437.5 640.7L450 626L450 901L437.5 901C425 901 400 901 375 901C350 901 325 901 300 901C275 901 250 901 225 901C200 901 175 901 150 901C125 901 100 901 75 901C50 901 25 901 12.5 901L0 901Z" fill="#e6ffb0"></path><path d="M0 717L12.5 717.7C25 718.3 50 719.7 75 729.2C100 738.7 125 756.3 150 765C175 773.7 200 773.3 225 776.8C250 780.3 275 787.7 300 779.5C325 771.3 350 747.7 375 734.7C400 721.7 425 719.3 437.5 718.2L450 717L450 901L437.5 901C425 901 400 901 375 901C350 901 325 901 300 901C275 901 250 901 225 901C200 901 175 901 150 901C125 901 100 901 75 901C50 901 25 901 12.5 901L0 901Z" fill="#e1ffa1"></path></svg>
