<svg id="visual" viewBox="0 0 450 900" width="450" height="900" xmlns="http://www.w3.org/2000/svg" xmlns:xlink="http://www.w3.org/1999/xlink" version="1.1">

<path d="M0 553L10.7 552.5C21.3 552 42.7 551 64.2 553.8C85.7 556.7 107.3 563.3 128.8 543.8C150.3 524.3 171.7 478.7 193 481.5C214.3 484.3 235.7 535.7 257 551.7C278.3 567.7 299.7 548.3 321.2 525.8C342.7 503.3 364.3 477.7 385.8 466.2C407.3 454.7 428.7 457.3 439.3 458.7L450 460L450 901L439.3 901C428.7 901 407.3 901 385.8 901C364.3 901 342.7 901 321.2 901C299.7 901 278.3 901 257 901C235.7 901 214.3 901 193 901C171.7 901 150.3 901 128.8 901C107.3 901 85.7 901 64.2 901C42.7 901 21.3 901 10.7 901L0 901Z" fill="#a6ffa1"></path><path d="M0 659L10.7 654.2C21.3 649.3 42.7 639.7 64.2 636.2C85.7 632.7 107.3 635.3 128.8 630.8C150.3 626.3 171.7 614.7 193 607.8C214.3 601 235.7 599 257 599.2C278.3 599.3 299.7 601.7 321.2 595.5C342.7 589.3 364.3 574.7 385.8 579.8C407.3 585 428.7 610 439.3 622.5L450 635L450 901L439.3 901C428.7 901 407.3 901 385.8 901C364.3 901 342.7 901 321.2 901C299.7 901 278.3 901 257 901C235.7 901 214.3 901 193 901C171.7 901 150.3 901 128.8 901C107.3 901 85.7 901 64.2 901C42.7 901 21.3 901 10.7 901L0 901Z" fill="#b5ffb1"></path><path d="M0 617L10.7 622.5C21.3 628 42.7 639 64.2 638.5C85.7 638 107.3 626 128.8 642.5C150.3 659 171.7 704 193 718.8C214.3 733.7 235.7 718.3 257 715.5C278.3 712.7 299.7 722.3 321.2 712.8C342.7 703.3 364.3 674.7 385.8 677.8C407.3 681 428.7 716 439.3 733.5L450 751L450 901L439.3 901C428.7 901 407.3 901 385.8 901C364.3 901 342.7 901 321.2 901C299.7 901 278.3 901 257 901C235.7 901 214.3 901 193 901C171.7 901 150.3 901 128.8 901C107.3 901 85.7 901 64.2 901C42.7 901 21.3 901 10.7 901L0 901Z" fill="#c3ffc0"></path><path d="M0 769L10.7 762.5C21.3 756 42.7 743 64.2 737C85.7 731 107.3 732 128.8 743.7C150.3 755.3 171.7 777.7 193 786.8C214.3 796 235.7 792 257 784C278.3 776 299.7 764 321.2 748.3C342.7 732.7 364.3 713.3 385.8 712.7C407.3 712 428.7 730 439.3 739L450 748L450 901L439.3 901C428.7 901 407.3 901 385.8 901C364.3 901 342.7 901 321.2 901C299.7 901 278.3 901 257 901C235.7 901 214.3 901 193 901C171.7 901 150.3 901 128.8 901C107.3 901 85.7 901 64.2 901C42.7 901 21.3 901 10.7 901L0 901Z" fill="#d1ffcf"></path><path d="M0 844L10.7 839.3C21.3 834.7 42.7 825.3 64.2 813.8C85.7 802.3 107.3 788.7 128.8 782.5C150.3 776.3 171.7 777.7 193 777.2C214.3 776.7 235.7 774.3 257 775.2C278.3 776 299.7 780 321.2 785.8C342.7 791.7 364.3 799.3 385.8 807C407.3 814.7 428.7 822.3 439.3 826.2L450 830L450 901L439.3 901C428.7 901 407.3 901 385.8 901C364.3 901 342.7 901 321.2 901C299.7 901 278.3 901 257 901C235.7 901 214.3 901 193 901C171.7 901 150.3 901 128.8 901C107.3 901 85.7 901 64.2 901C42.7 901 21.3 901 10.7 901L0 901Z" fill="#dfffdd"></path></svg>
