<svg id="visual" viewBox="0 0 450 900" width="450" height="900" xmlns="http://www.w3.org/2000/svg" xmlns:xlink="http://www.w3.org/1999/xlink" version="1.1">

<path d="M0 583L10.7 557.7C21.3 532.3 42.7 481.7 64.2 467.5C85.7 453.3 107.3 475.7 128.8 487.2C150.3 498.7 171.7 499.3 193 504.2C214.3 509 235.7 518 257 522.2C278.3 526.3 299.7 525.7 321.2 529.2C342.7 532.7 364.3 540.3 385.8 529.5C407.3 518.7 428.7 489.3 439.3 474.7L450 460L450 901L439.3 901C428.7 901 407.3 901 385.8 901C364.3 901 342.7 901 321.2 901C299.7 901 278.3 901 257 901C235.7 901 214.3 901 193 901C171.7 901 150.3 901 128.8 901C107.3 901 85.7 901 64.2 901C42.7 901 21.3 901 10.7 901L0 901Z" fill="#dfffdd"></path><path d="M0 594L10.7 592.2C21.3 590.3 42.7 586.7 64.2 578.3C85.7 570 107.3 557 128.8 568.5C150.3 580 171.7 616 193 641.7C214.3 667.3 235.7 682.7 257 681.5C278.3 680.3 299.7 662.7 321.2 645C342.7 627.3 364.3 609.7 385.8 594.5C407.3 579.3 428.7 566.7 439.3 560.3L450 554L450 901L439.3 901C428.7 901 407.3 901 385.8 901C364.3 901 342.7 901 321.2 901C299.7 901 278.3 901 257 901C235.7 901 214.3 901 193 901C171.7 901 150.3 901 128.8 901C107.3 901 85.7 901 64.2 901C42.7 901 21.3 901 10.7 901L0 901Z" fill="#d1ffcf"></path><path d="M0 727L10.7 726.3C21.3 725.7 42.7 724.3 64.2 720C85.7 715.7 107.3 708.3 128.8 690.5C150.3 672.7 171.7 644.3 193 641.8C214.3 639.3 235.7 662.7 257 671.8C278.3 681 299.7 676 321.2 684.7C342.7 693.3 364.3 715.7 385.8 723.3C407.3 731 428.7 724 439.3 720.5L450 717L450 901L439.3 901C428.7 901 407.3 901 385.8 901C364.3 901 342.7 901 321.2 901C299.7 901 278.3 901 257 901C235.7 901 214.3 901 193 901C171.7 901 150.3 901 128.8 901C107.3 901 85.7 901 64.2 901C42.7 901 21.3 901 10.7 901L0 901Z" fill="#c3ffc0"></path><path d="M0 686L10.7 686.3C21.3 686.7 42.7 687.3 64.2 696.8C85.7 706.3 107.3 724.7 128.8 732.7C150.3 740.7 171.7 738.3 193 739C214.3 739.7 235.7 743.3 257 754.7C278.3 766 299.7 785 321.2 774.2C342.7 763.3 364.3 722.7 385.8 710.7C407.3 698.7 428.7 715.3 439.3 723.7L450 732L450 901L439.3 901C428.7 901 407.3 901 385.8 901C364.3 901 342.7 901 321.2 901C299.7 901 278.3 901 257 901C235.7 901 214.3 901 193 901C171.7 901 150.3 901 128.8 901C107.3 901 85.7 901 64.2 901C42.7 901 21.3 901 10.7 901L0 901Z" fill="#b5ffb1"></path><path d="M0 831L10.7 818.7C21.3 806.3 42.7 781.7 64.2 785.2C85.7 788.7 107.3 820.3 128.8 836.8C150.3 853.3 171.7 854.7 193 846.7C214.3 838.7 235.7 821.3 257 817.8C278.3 814.3 299.7 824.7 321.2 827.2C342.7 829.7 364.3 824.3 385.8 812.7C407.3 801 428.7 783 439.3 774L450 765L450 901L439.3 901C428.7 901 407.3 901 385.8 901C364.3 901 342.7 901 321.2 901C299.7 901 278.3 901 257 901C235.7 901 214.3 901 193 901C171.7 901 150.3 901 128.8 901C107.3 901 85.7 901 64.2 901C42.7 901 21.3 901 10.7 901L0 901Z" fill="#a6ffa1"></path></svg>
