<svg id="visual" viewBox="0 0 450 900" width="450" height="900" xmlns="http://www.w3.org/2000/svg" xmlns:xlink="http://www.w3.org/1999/xlink" version="1.1"><rect x="0" y="0" width="450" height="900" fill="#F4FFDD"></rect><path d="M0 265L10.7 245.3C21.3 225.7 42.7 186.3 64.2 198.5C85.7 210.7 107.3 274.3 128.8 302.7C150.3 331 171.7 324 193 292.3C214.3 260.7 235.7 204.3 257 182.3C278.3 160.3 299.7 172.7 321.2 207.2C342.7 241.7 364.3 298.3 385.8 299.5C407.3 300.7 428.7 246.3 439.3 219.2L450 192L450 901L439.3 901C428.7 901 407.3 901 385.8 901C364.3 901 342.7 901 321.2 901C299.7 901 278.3 901 257 901C235.7 901 214.3 901 193 901C171.7 901 150.3 901 128.8 901C107.3 901 85.7 901 64.2 901C42.7 901 21.3 901 10.7 901L0 901Z" fill="#f4ffdd"></path><path d="M0 275L10.7 295.5C21.3 316 42.7 357 64.2 369.5C85.7 382 107.3 366 128.8 360.5C150.3 355 171.7 360 193 367.7C214.3 375.3 235.7 385.7 257 366.8C278.3 348 299.7 300 321.2 292.5C342.7 285 364.3 318 385.8 349.2C407.3 380.3 428.7 409.7 439.3 424.3L450 439L450 901L439.3 901C428.7 901 407.3 901 385.8 901C364.3 901 342.7 901 321.2 901C299.7 901 278.3 901 257 901C235.7 901 214.3 901 193 901C171.7 901 150.3 901 128.8 901C107.3 901 85.7 901 64.2 901C42.7 901 21.3 901 10.7 901L0 901Z" fill="#f0ffd1"></path><path d="M0 388L10.7 384.3C21.3 380.7 42.7 373.3 64.2 386.3C85.7 399.3 107.3 432.7 128.8 432.3C150.3 432 171.7 398 193 411.5C214.3 425 235.7 486 257 517.8C278.3 549.7 299.7 552.3 321.2 539.7C342.7 527 364.3 499 385.8 490.8C407.3 482.7 428.7 494.3 439.3 500.2L450 506L450 901L439.3 901C428.7 901 407.3 901 385.8 901C364.3 901 342.7 901 321.2 901C299.7 901 278.3 901 257 901C235.7 901 214.3 901 193 901C171.7 901 150.3 901 128.8 901C107.3 901 85.7 901 64.2 901C42.7 901 21.3 901 10.7 901L0 901Z" fill="#edffc5"></path><path d="M0 560L10.7 559.7C21.3 559.3 42.7 558.7 64.2 554C85.7 549.3 107.3 540.7 128.8 538.7C150.3 536.7 171.7 541.3 193 533.5C214.3 525.7 235.7 505.3 257 503.8C278.3 502.3 299.7 519.7 321.2 545.7C342.7 571.7 364.3 606.3 385.8 605.8C407.3 605.3 428.7 569.7 439.3 551.8L450 534L450 901L439.3 901C428.7 901 407.3 901 385.8 901C364.3 901 342.7 901 321.2 901C299.7 901 278.3 901 257 901C235.7 901 214.3 901 193 901C171.7 901 150.3 901 128.8 901C107.3 901 85.7 901 64.2 901C42.7 901 21.3 901 10.7 901L0 901Z" fill="#e9ffb9"></path><path d="M0 641L10.7 656.5C21.3 672 42.7 703 64.2 701.2C85.7 699.3 107.3 664.7 128.8 658.8C150.3 653 171.7 676 193 686.2C214.3 696.3 235.7 693.7 257 689.7C278.3 685.7 299.7 680.3 321.2 673.5C342.7 666.7 364.3 658.3 385.8 651.2C407.3 644 428.7 638 439.3 635L450 632L450 901L439.3 901C428.7 901 407.3 901 385.8 901C364.3 901 342.7 901 321.2 901C299.7 901 278.3 901 257 901C235.7 901 214.3 901 193 901C171.7 901 150.3 901 128.8 901C107.3 901 85.7 901 64.2 901C42.7 901 21.3 901 10.7 901L0 901Z" fill="#e5ffad"></path><path d="M0 737L10.7 732.7C21.3 728.3 42.7 719.7 64.2 734C85.7 748.3 107.3 785.7 128.8 798.2C150.3 810.7 171.7 798.3 193 789.5C214.3 780.7 235.7 775.3 257 777.5C278.3 779.7 299.7 789.3 321.2 797.8C342.7 806.3 364.3 813.7 385.8 813.2C407.3 812.7 428.7 804.3 439.3 800.2L450 796L450 901L439.3 901C428.7 901 407.3 901 385.8 901C364.3 901 342.7 901 321.2 901C299.7 901 278.3 901 257 901C235.7 901 214.3 901 193 901C171.7 901 150.3 901 128.8 901C107.3 901 85.7 901 64.2 901C42.7 901 21.3 901 10.7 901L0 901Z" fill="#e1ffa1"></path></svg>