<svg id="visual" viewBox="0 0 675 900" width="675" height="900" xmlns="http://www.w3.org/2000/svg" xmlns:xlink="http://www.w3.org/1999/xlink" version="1.1">

    <path d="M0 252L22.5 316.5C45 381 90 510 135 595.3C180 680.7 225 722.3 270 742.5C315 762.7 360 761.3 405 757.5C450 753.7 495 747.3 540 739.7C585 732 630 723 652.5 718.5L675 714L675 901L652.5 901C630 901 585 901 540 901C495 901 450 901 405 901C360 901 315 901 270 901C225 901 180 901 135 901C90 901 45 901 22.5 901L0 901Z" fill="#A6FFA1" stroke-linecap="round" stroke-linejoin="miter">
    </path>

</svg>
