<svg id="visual" viewBox="0 0 675 900" width="675" height="900" xmlns="http://www.w3.org/2000/svg" xmlns:xlink="http://www.w3.org/1999/xlink" version="1.1">

<path d="M0 646L22.5 581.5C45 517 90 388 135 302.7C180 217.3 225 175.7 270 155.5C315 135.3 360 136.7 405 140.5C450 144.3 495 150.7 540 158.3C585 166 630 175 652.5 179.5L675 184L675 0L652.5 0C630 0 585 0 540 0C495 0 450 0 405 0C360 0 315 0 270 0C225 0 180 0 135 0C90 0 45 0 22.5 0L0 0Z" fill="#A6FFA1" stroke-linecap="round" stroke-linejoin="miter"></path>
</svg>
